{
  "accessors": [
    {
      "bufferView": 2,
      "componentType": 5126,
      "count": 18725,
      "max": [
        28.218223571777344,
        281.0389099121094,
        -3.6888656616210938
      ],
      "min": [
        -32.6605110168457,
        163.3255157470703,
        -62.640541076660156
      ],
      "type": "VEC3"
    },
    {
      "bufferView": 2,
      "byteOffset": 224700,
      "componentType": 5126,
      "count": 18725,
      "max": [
        1.0,
        1.0,
        1.0
      ],
      "min": [
        -1.0,
        -0.9999783039093018,
        -1.0
      ],
      "type": "VEC3"
    },
    {
      "bufferView": 3,
      "componentType": 5126,
      "count": 18725,
      "max": [
        1.0,
        0.9999991655349731,
        1.0,
        1.0
      ],
      "min": [
        -1.0,
        -1.0,
        -1.0,
        -1.0
      ],
      "type": "VEC4"
    },
    {
      "bufferView": 1,
      "componentType": 5126,
      "count": 18725,
      "max": [
        0.998046875,
        0.9951783418655396
      ],
      "min": [
        0.001953125,
        0.001953125
      ],
      "type": "VEC2"
    },
    {
      "bufferView": 1,
      "byteOffset": 149800,
      "componentType": 5126,
      "count": 18725,
      "max": [
        1.0,
        1.0
      ],
      "min": [
        0.0,
        0.0
      ],
      "type": "VEC2"
    },
    {
      "bufferView": 0,
      "componentType": 5125,
      "count": 96873,
      "type": "SCALAR"
    },
    {
      "bufferView": 2,
      "byteOffset": 449400,
      "componentType": 5126,
      "count": 3665,
      "max": [
        95.4205322265625,
        210.72366333007813,
        87.44129180908203
      ],
      "min": [
        23.16236114501953,
        158.79580688476563,
        6.673908233642578
      ],
      "type": "VEC3"
    },
    {
      "bufferView": 2,
      "byteOffset": 493380,
      "componentType": 5126,
      "count": 3665,
      "max": [
        0.9953170418739319,
        0.9994458556175232,
        0.9974205493927002
      ],
      "min": [
        -0.9953142404556274,
        -0.9994474649429321,
        -0.9956685304641724
      ],
      "type": "VEC3"
    },
    {
      "bufferView": 3,
      "byteOffset": 299600,
      "componentType": 5126,
      "count": 3665,
      "max": [
        0.9994890689849854,
        0.9988638162612915,
        0.9944579601287842,
        1.0
      ],
      "min": [
        -0.9982537627220154,
        -0.9992451071739197,
        -0.997363269329071,
        1.0
      ],
      "type": "VEC4"
    },
    {
      "bufferView": 1,
      "byteOffset": 299600,
      "componentType": 5126,
      "count": 3665,
      "max": [
        0.9978958368301392,
        0.998046875
      ],
      "min": [
        0.001953125,
        0.001953125
      ],
      "type": "VEC2"
    },
    {
      "bufferView": 1,
      "byteOffset": 328920,
      "componentType": 5126,
      "count": 3665,
      "max": [
        0.0,
        0.0
      ],
      "min": [
        0.0,
        0.0
      ],
      "type": "VEC2"
    },
    {
      "bufferView": 0,
      "byteOffset": 387492,
      "componentType": 5125,
      "count": 12879,
      "type": "SCALAR"
    },
    {
      "bufferView": 2,
      "byteOffset": 537360,
      "componentType": 5126,
      "count": 13938,
      "max": [
        48.98436737060547,
        155.6463623046875,
        39.92074966430664
      ],
      "min": [
        -43.358951568603516,
        -0.5152756571769714,
        -20.73723030090332
      ],
      "type": "VEC3"
    },
    {
      "bufferView": 2,
      "byteOffset": 704616,
      "componentType": 5126,
      "count": 13938,
      "max": [
        0.9999237060546875,
        0.9999958872795105,
        0.9999252557754517
      ],
      "min": [
        -0.9998729228973389,
        -1.0,
        -0.9999710321426392
      ],
      "type": "VEC3"
    },
    {
      "bufferView": 3,
      "byteOffset": 358240,
      "componentType": 5126,
      "count": 13938,
      "max": [
        0.9999514222145081,
        0.9999923706054688,
        0.9999930262565613,
        1.0
      ],
      "min": [
        -0.9998828768730164,
        -0.9998262524604797,
        -0.9999461770057678,
        -1.0
      ],
      "type": "VEC4"
    },
    {
      "bufferView": 1,
      "byteOffset": 358240,
      "componentType": 5126,
      "count": 13938,
      "max": [
        0.998046875,
        0.9905515909194946
      ],
      "min": [
        0.001953125,
        0.001953125
      ],
      "type": "VEC2"
    },
    {
      "bufferView": 1,
      "byteOffset": 469744,
      "componentType": 5126,
      "count": 13938,
      "max": [
        1.847757339477539,
        6.005171775817871
      ],
      "min": [
        -0.5575838685035706,
        -0.000870716932695359
      ],
      "type": "VEC2"
    },
    {
      "bufferView": 0,
      "byteOffset": 439008,
      "componentType": 5125,
      "count": 66702,
      "type": "SCALAR"
    },
    {
      "bufferView": 2,
      "byteOffset": 871872,
      "componentType": 5126,
      "count": 5718,
      "max": [
        49.89809799194336,
        206.5043182373047,
        35.15768051147461
      ],
      "min": [
        -52.0850715637207,
        5.917165756225586,
        -37.09819412231445
      ],
      "type": "VEC3"
    },
    {
      "bufferView": 2,
      "byteOffset": 940488,
      "componentType": 5126,
      "count": 5718,
      "max": [
        0.9999989867210388,
        0.9996517896652222,
        0.9999999403953552
      ],
      "min": [
        -0.9999989867210388,
        -0.9999573230743408,
        -0.9999796152114868
      ],
      "type": "VEC3"
    },
    {
      "bufferView": 3,
      "byteOffset": 581248,
      "componentType": 5126,
      "count": 5718,
      "max": [
        1.0,
        0.9997615218162537,
        0.9995532035827637,
        1.0
      ],
      "min": [
        -0.9999999403953552,
        -0.9994398951530457,
        -0.9999332427978516,
        -1.0
      ],
      "type": "VEC4"
    },
    {
      "bufferView": 1,
      "byteOffset": 581248,
      "componentType": 5126,
      "count": 5718,
      "max": [
        0.998046875,
        0.994782567024231
      ],
      "min": [
        0.001953125,
        -0.0035541385877877474
      ],
      "type": "VEC2"
    },
    {
      "bufferView": 1,
      "byteOffset": 626992,
      "componentType": 5126,
      "count": 5718,
      "max": [
        0.0,
        0.0
      ],
      "min": [
        0.0,
        0.0
      ],
      "type": "VEC2"
    },
    {
      "bufferView": 0,
      "byteOffset": 705816,
      "componentType": 5125,
      "count": 29445,
      "type": "SCALAR"
    },
    {
      "bufferView": 2,
      "byteOffset": 1009104,
      "componentType": 5126,
      "count": 2439,
      "max": [
        34.785186767578125,
        246.2109832763672,
        31.723785400390625
      ],
      "min": [
        -33.00535202026367,
        119.47235107421875,
        -20.11882972717285
      ],
      "type": "VEC3"
    },
    {
      "bufferView": 2,
      "byteOffset": 1038372,
      "componentType": 5126,
      "count": 2439,
      "max": [
        0.999946117401123,
        0.997461199760437,
        0.9998699426651001
      ],
      "min": [
        -0.9990183711051941,
        -0.999189019203186,
        -0.9991698265075684
      ],
      "type": "VEC3"
    },
    {
      "bufferView": 3,
      "byteOffset": 672736,
      "componentType": 5126,
      "count": 2439,
      "max": [
        0.9999982714653015,
        0.9999557733535767,
        0.9993455410003662,
        1.0
      ],
      "min": [
        -0.999209463596344,
        -0.999890148639679,
        -0.9997864365577698,
        -1.0
      ],
      "type": "VEC4"
    },
    {
      "bufferView": 1,
      "byteOffset": 672736,
      "componentType": 5126,
      "count": 2439,
      "max": [
        0.9908549785614014,
        0.998046875
      ],
      "min": [
        0.001953125,
        0.001953125
      ],
      "type": "VEC2"
    },
    {
      "bufferView": 1,
      "byteOffset": 692248,
      "componentType": 5126,
      "count": 2439,
      "max": [
        1.015181064605713,
        1.0024595260620117
      ],
      "min": [
        0.0,
        0.0
      ],
      "type": "VEC2"
    },
    {
      "bufferView": 0,
      "byteOffset": 823596,
      "componentType": 5125,
      "count": 9816,
      "type": "SCALAR"
    },
    {
      "bufferView": 2,
      "byteOffset": 1067640,
      "componentType": 5126,
      "count": 2769,
      "max": [
        -18.220687866210938,
        163.24874877929688,
        119.38861846923828
      ],
      "min": [
        -101.67724609375,
        66.85423278808594,
        -155.46694946289063
      ],
      "type": "VEC3"
    },
    {
      "bufferView": 2,
      "byteOffset": 1100868,
      "componentType": 5126,
      "count": 2769,
      "max": [
        0.9997264742851257,
        0.999983012676239,
        0.9990971088409424
      ],
      "min": [
        -0.9999990463256836,
        -0.9999663233757019,
        -0.9848046898841858
      ],
      "type": "VEC3"
    },
    {
      "bufferView": 3,
      "byteOffset": 711760,
      "componentType": 5126,
      "count": 2769,
      "max": [
        0.9996904134750366,
        0.9989156126976013,
        0.9986284971237183,
        1.0
      ],
      "min": [
        -0.998134195804596,
        -0.9990944862365723,
        -0.9990122318267822,
        -1.0
      ],
      "type": "VEC4"
    },
    {
      "bufferView": 1,
      "byteOffset": 711760,
      "componentType": 5126,
      "count": 2769,
      "max": [
        0.9964274168014526,
        0.998046875
      ],
      "min": [
        0.001953125,
        0.001953125
      ],
      "type": "VEC2"
    },
    {
      "bufferView": 1,
      "byteOffset": 733912,
      "componentType": 5126,
      "count": 2769,
      "max": [
        0.0,
        0.0
      ],
      "min": [
        0.0,
        0.0
      ],
      "type": "VEC2"
    },
    {
      "bufferView": 0,
      "byteOffset": 862860,
      "componentType": 5125,
      "count": 11748,
      "type": "SCALAR"
    },
    {
      "bufferView": 2,
      "byteOffset": 1134096,
      "componentType": 5126,
      "count": 16470,
      "max": [
        72.35651397705078,
        245.1178741455078,
        63.13200759887695
      ],
      "min": [
        -70.63825988769531,
        111.81324768066406,
        -26.9642391204834
      ],
      "type": "VEC3"
    },
    {
      "bufferView": 2,
      "byteOffset": 1331736,
      "componentType": 5126,
      "count": 16470,
      "max": [
        0.9999439716339111,
        0.999977707862854,
        0.9997628331184387
      ],
      "min": [
        -0.9999500513076782,
        -0.9998978972434998,
        -0.9999908208847046
      ],
      "type": "VEC3"
    },
    {
      "bufferView": 3,
      "byteOffset": 756064,
      "componentType": 5126,
      "count": 16470,
      "max": [
        0.9997225403785706,
        0.999769926071167,
        0.9999836683273315,
        1.0
      ],
      "min": [
        -0.9999502897262573,
        -0.9999887347221375,
        -0.9999809861183167,
        -1.0
      ],
      "type": "VEC4"
    },
    {
      "bufferView": 1,
      "byteOffset": 756064,
      "componentType": 5126,
      "count": 16470,
      "max": [
        0.9976766109466553,
        0.998046875
      ],
      "min": [
        0.001953125,
        0.001953125
      ],
      "type": "VEC2"
    },
    {
      "bufferView": 1,
      "byteOffset": 887824,
      "componentType": 5126,
      "count": 16470,
      "max": [
        8.13985824584961,
        9.55875301361084
      ],
      "min": [
        -10.955606460571289,
        -1.1997826099395752
      ],
      "type": "VEC2"
    },
    {
      "bufferView": 0,
      "byteOffset": 909852,
      "componentType": 5125,
      "count": 68790,
      "type": "SCALAR"
    }
  ],
  "asset": {
    "extras": {
      "author": "LamedeFeu (https://sketchfab.com/lamedefeu)",
      "license": "CC-BY-NC-SA-4.0 (http://creativecommons.org/licenses/by-nc-sa/4.0/)",
      "source": "https://sketchfab.com/3d-models/crusader-knight-e8337c53878746a2a074b9cdd67baf38",
      "title": "Crusader Knight"
    },
    "generator": "Sketchfab-13.87.0",
    "version": "2.0"
  },
  "bufferViews": [
    {
      "buffer": 0,
      "byteLength": 1185012,
      "name": "floatBufferViews",
      "target": 34963
    },
    {
      "buffer": 0,
      "byteLength": 1019584,
      "byteOffset": 1185012,
      "byteStride": 8,
      "name": "floatBufferViews",
      "target": 34962
    },
    {
      "buffer": 0,
      "byteLength": 1529376,
      "byteOffset": 2204596,
      "byteStride": 12,
      "name": "floatBufferViews",
      "target": 34962
    },
    {
      "buffer": 0,
      "byteLength": 1019584,
      "byteOffset": 3733972,
      "byteStride": 16,
      "name": "floatBufferViews",
      "target": 34962
    }
  ],
  "buffers": [
    {
      "byteLength": 4753556,
      "uri": "scene.bin"
    }
  ],
  "images": [
    {
      "uri": "textures/CANDLE_baseColor.png"
    },
    {
      "uri": "textures/CANDLE_metallicRoughness.png"
    },
    {
      "uri": "textures/CANDLE_emissive.png"
    },
    {
      "uri": "textures/CANDLE_normal.png"
    },
    {
      "uri": "textures/BOOK_baseColor.png"
    },
    {
      "uri": "textures/BOOK_metallicRoughness.png"
    },
    {
      "uri": "textures/BOOK_normal.png"
    },
    {
      "uri": "textures/material_baseColor.png"
    },
    {
      "uri": "textures/material_metallicRoughness.png"
    },
    {
      "uri": "textures/material_normal.png"
    },
    {
      "uri": "textures/CLOAK_baseColor.png"
    },
    {
      "uri": "textures/CLOAK_metallicRoughness.png"
    },
    {
      "uri": "textures/CLOAK_normal.png"
    },
    {
      "uri": "textures/TORSO_baseColor.png"
    },
    {
      "uri": "textures/TORSO_metallicRoughness.png"
    },
    {
      "uri": "textures/TORSO_normal.png"
    },
    {
      "uri": "textures/HAMMER_baseColor.png"
    },
    {
      "uri": "textures/HAMMER_metallicRoughness.png"
    },
    {
      "uri": "textures/HAMMER_normal.png"
    },
    {
      "uri": "textures/SHOULDER_baseColor.png"
    },
    {
      "uri": "textures/SHOULDER_metallicRoughness.png"
    },
    {
      "uri": "textures/SHOULDER_normal.png"
    }
  ],
  "materials": [
    {
      "alphaMode": "BLEND",
      "doubleSided": true,
      "emissiveFactor": [
        1.0,
        1.0,
        1.0
      ],
      "emissiveTexture": {
        "index": 2
      },
      "name": "CANDLE",
      "normalTexture": {
        "index": 3
      },
      "pbrMetallicRoughness": {
        "baseColorTexture": {
          "index": 0
        },
        "metallicRoughnessTexture": {
          "index": 1
        }
      }
    },
    {
      "doubleSided": true,
      "name": "BOOK",
      "normalTexture": {
        "index": 6
      },
      "pbrMetallicRoughness": {
        "baseColorTexture": {
          "index": 4
        },
        "metallicRoughnessTexture": {
          "index": 5
        }
      }
    },
    {
      "doubleSided": true,
      "name": "material",
      "normalTexture": {
        "index": 9
      },
      "pbrMetallicRoughness": {
        "baseColorTexture": {
          "index": 7
        },
        "metallicRoughnessTexture": {
          "index": 8
        }
      }
    },
    {
      "alphaMode": "BLEND",
      "doubleSided": true,
      "name": "CLOAK",
      "normalTexture": {
        "index": 12
      },
      "pbrMetallicRoughness": {
        "baseColorTexture": {
          "index": 10
        },
        "metallicRoughnessTexture": {
          "index": 11
        }
      }
    },
    {
      "doubleSided": true,
      "name": "TORSO",
      "normalTexture": {
        "index": 15
      },
      "pbrMetallicRoughness": {
        "baseColorTexture": {
          "index": 13
        },
        "metallicRoughnessTexture": {
          "index": 14
        }
      }
    },
    {
      "alphaMode": "BLEND",
      "doubleSided": true,
      "name": "HAMMER",
      "normalTexture": {
        "index": 18
      },
      "pbrMetallicRoughness": {
        "baseColorTexture": {
          "index": 16
        },
        "metallicRoughnessTexture": {
          "index": 17
        }
      }
    },
    {
      "doubleSided": true,
      "name": "SHOULDER",
      "normalTexture": {
        "index": 21
      },
      "pbrMetallicRoughness": {
        "baseColorTexture": {
          "index": 19
        },
        "metallicRoughnessTexture": {
          "index": 20
        }
      }
    }
  ],
  "meshes": [
    {
      "name": "polySurface917_CANDLE_0",
      "primitives": [
        {
          "attributes": {
            "NORMAL": 1,
            "POSITION": 0,
            "TANGENT": 2,
            "TEXCOORD_0": 3,
            "TEXCOORD_1": 4
          },
          "indices": 5,
          "material": 0,
          "mode": 4
        }
      ]
    },
    {
      "name": "polySurface917_BOOK_0",
      "primitives": [
        {
          "attributes": {
            "NORMAL": 7,
            "POSITION": 6,
            "TANGENT": 8,
            "TEXCOORD_0": 9,
            "TEXCOORD_1": 10
          },
          "indices": 11,
          "material": 1,
          "mode": 4
        }
      ]
    },
    {
      "name": "polySurface917_LEG_0",
      "primitives": [
        {
          "attributes": {
            "NORMAL": 13,
            "POSITION": 12,
            "TANGENT": 14,
            "TEXCOORD_0": 15,
            "TEXCOORD_1": 16
          },
          "indices": 17,
          "material": 2,
          "mode": 4
        }
      ]
    },
    {
      "name": "polySurface917_CLOAK_0",
      "primitives": [
        {
          "attributes": {
            "NORMAL": 19,
            "POSITION": 18,
            "TANGENT": 20,
            "TEXCOORD_0": 21,
            "TEXCOORD_1": 22
          },
          "indices": 23,
          "material": 3,
          "mode": 4
        }
      ]
    },
    {
      "name": "polySurface917_TORSO_0",
      "primitives": [
        {
          "attributes": {
            "NORMAL": 25,
            "POSITION": 24,
            "TANGENT": 26,
            "TEXCOORD_0": 27,
            "TEXCOORD_1": 28
          },
          "indices": 29,
          "material": 4,
          "mode": 4
        }
      ]
    },
    {
      "name": "polySurface917_HAMMER_0",
      "primitives": [
        {
          "attributes": {
            "NORMAL": 31,
            "POSITION": 30,
            "TANGENT": 32,
            "TEXCOORD_0": 33,
            "TEXCOORD_1": 34
          },
          "indices": 35,
          "material": 5,
          "mode": 4
        }
      ]
    },
    {
      "name": "polySurface917_SHOULDER_0",
      "primitives": [
        {
          "attributes": {
            "NORMAL": 37,
            "POSITION": 36,
            "TANGENT": 38,
            "TEXCOORD_0": 39,
            "TEXCOORD_1": 40
          },
          "indices": 41,
          "material": 6,
          "mode": 4
        }
      ]
    }
  ],
  "nodes": [
    {
      "children": [
        1
      ],
      "matrix": [
        1.0,
        0.0,
        0.0,
        0.0,
        0.0,
        2.220446049250313e-16,
        -1.0,
        0.0,
        0.0,
        1.0,
        2.220446049250313e-16,
        0.0,
        0.0,
        0.0,
        0.0,
        1.0
      ],
      "name": "Sketchfab_model"
    },
    {
      "children": [
        2
      ],
      "matrix": [
        0.009999999776482582,
        0.0,
        0.0,
        0.0,
        0.0,
        0.0,
        0.009999999776482582,
        0.0,
        0.0,
        -0.009999999776482582,
        0.0,
        0.0,
        0.0,
        0.0,
        0.0,
        1.0
      ],
      "name": "66f295371cb441afb0601195712713ea.fbx"
    },
    {
      "children": [
        3
      ],
      "name": "RootNode"
    },
    {
      "children": [
        4,
        5,
        6,
        7,
        8,
        9,
        10
      ],
      "name": "polySurface917"
    },
    {
      "mesh": 0,
      "name": "polySurface917_CANDLE_0"
    },
    {
      "mesh": 1,
      "name": "polySurface917_BOOK_0"
    },
    {
      "mesh": 2,
      "name": "polySurface917_LEG_0"
    },
    {
      "mesh": 3,
      "name": "polySurface917_CLOAK_0"
    },
    {
      "mesh": 4,
      "name": "polySurface917_TORSO_0"
    },
    {
      "mesh": 5,
      "name": "polySurface917_HAMMER_0"
    },
    {
      "mesh": 6,
      "name": "polySurface917_SHOULDER_0"
    }
  ],
  "samplers": [
    {
      "magFilter": 9729,
      "minFilter": 9987,
      "wrapS": 10497,
      "wrapT": 10497
    }
  ],
  "scene": 0,
  "scenes": [
    {
      "name": "Sketchfab_Scene",
      "nodes": [
        0
      ]
    }
  ],
  "textures": [
    {
      "sampler": 0,
      "source": 0
    },
    {
      "sampler": 0,
      "source": 1
    },
    {
      "sampler": 0,
      "source": 2
    },
    {
      "sampler": 0,
      "source": 3
    },
    {
      "sampler": 0,
      "source": 4
    },
    {
      "sampler": 0,
      "source": 5
    },
    {
      "sampler": 0,
      "source": 6
    },
    {
      "sampler": 0,
      "source": 7
    },
    {
      "sampler": 0,
      "source": 8
    },
    {
      "sampler": 0,
      "source": 9
    },
    {
      "sampler": 0,
      "source": 10
    },
    {
      "sampler": 0,
      "source": 11
    },
    {
      "sampler": 0,
      "source": 12
    },
    {
      "sampler": 0,
      "source": 13
    },
    {
      "sampler": 0,
      "source": 14
    },
    {
      "sampler": 0,
      "source": 15
    },
    {
      "sampler": 0,
      "source": 16
    },
    {
      "sampler": 0,
      "source": 17
    },
    {
      "sampler": 0,
      "source": 18
    },
    {
      "sampler": 0,
      "source": 19
    },
    {
      "sampler": 0,
      "source": 20
    },
    {
      "sampler": 0,
      "source": 21
    }
  ]
}
